<?xml version="1.0" encoding="utf-8"?>
<!-- Generator: Adobe Illustrator 23.0.6, SVG Export Plug-In . SVG Version: 6.00 Build 0)  -->
<svg version="1.1" id="Layer_1" xmlns="http://www.w3.org/2000/svg" xmlns:xlink="http://www.w3.org/1999/xlink" x="0px" y="0px"
	 viewBox="0 0 338 190.9" style="enable-background:new 0 0 338 190.9;" xml:space="preserve">
<g>
	<path d="M79.6,170.6c2.1-1.2,1.7-2.9,0.6-4.6c-1.3-2.1-3.2-3.8-4.9-5.6c-6.2-6.5-13.5-11.8-19.4-18.7c-8.6-10-16.1-20.8-24.1-31.2
		c-1.1-1.4-2-3-3.8-3.9c-1.3-0.1-2.4,0-3,1.4c0.1,0.4,0.1,0.9,0.4,1.3c11.8,19.3,26.4,36.3,43.3,51.5c-1.5,1-2.1,0.2-2.8-0.1
		c-6.9-2.8-13.9-4.3-21.4-4c-4.8,0.2-9.7-0.1-14.5,0c-5.7,0.1-11.3-0.3-17-0.8c-5.1-0.4-7.5-2.9-7.8-7.9c-0.2-2.8,0.1-5.6,0.7-8.4
		c3-13.1,9.7-24.4,16.8-35.5C36.6,82.4,53.7,63.5,73,46.7c8.8-7.7,18.2-14.5,29-19.3c5.2-2.3,10.7-3.8,16.3-4.3
		c6-0.6,9.1,2.1,9.6,8.1c0.2,2-0.1,4-0.4,6c-1.9,11.5-6.7,22-12,32.1c-7.4,14.2-15.6,27.9-22.9,42.1c-1.9,3.8-3.6,7.8-6.7,10.7
		c-2.7-0.4-2.4-3.4-4.7-4.2c-1.4-0.6-3,0.6-4.7,0.1c-4-1-6.7,1.1-9.1,3.9c-5.2,6-5.7,13.7-1.3,20.9c3.5,5.9,8.7,6.6,13.7,2.1
		c1.1-1,1.8-2.5,3.7-2.8c2.4,1.9,5,4.4,8.6,2.1c1.8-1.4,1.5-3.9,2.7-5.6c2.2,0.5,3.4,2.8,5.7,1.8c1-0.5,1.4-1.4,1.9-2.3
		c0.6-1,0.5-2.3,1.8-2.8c3,1.3,3,1.3,6,0.7c1.6-0.8,1.4-3.1,3-3.8c7.4,1.2,8.8,1,15.8-2.4c0.7-0.4,1.6-0.8,2.3-0.8
		c4.9,0.1,9.5-1.5,14.1-2.9c0.9-0.3,2-0.5,3.4,0.8C145,141.9,141,157,137,171.9c2.3,1.4,3.4,0.8,4.4-0.7c1.3-2,1.9-4.2,2.5-6.5
		c0.5-1.9,0.8-3.9,2.8-5.8c5.4-2.1,11.2-4.4,17.6-4.7c5.1,6.9,8.6,14.6,13.5,21.8c6.2-5.6,0.5-12.4,3-17.7c1.8-0.8,3.2,0.1,4.5,0.6
		c2.8,1,5.6,2.1,8.4,3.1c2,0.7,3.9,1.2,5.4-1.1c0.5-2.2-0.7-4.1-1.6-6c-3.3-6.5-7-12.9-10.1-19.5c-1.9-3.9-4.7-7.5-5.6-12.3
		c7.4,3.7,7.8,3.6,12.9-2.7c2.5,1.4,4.1,4.5,7.5,4.1c4.4-1,3.8-5.4,5.7-8.1c2-0.4,3.4,1.5,5.7,1.1c3.7-0.5,2.7-5.1,5.1-7.2
		c3,2.4,4.6,7.3,9.5,5.2c2.6-2,2.3-5.4,4.5-7.3c0.6,0.1,1.2,0,1.6,0.2c4,2.4,7.6,1.9,11.1-1c1.1-0.9,2.6-1.7,4.1-1.6
		c3.9,0.4,7.1-1.3,10.5-2.7c4.4-1.9,8.9-3.8,13.4-4.1c2.1,0.6,2.9,2.4,4.9,2.6c7.1,0,13.9-3.9,21.1-2.5c1.8,2.9,0.5,5.2-0.5,7.5
		c-2.3,5.3-5.5,10.3-7.4,15.8c-1.7,4.6-2.4,9.3-1.2,14.2c0.8,3.2,1.7,3.6,5.9,2.2c-1.2-8.6-1.8-17.3,5.6-25.3
		c5.3,26.1,9.7,51.5,14.2,76.6c2.2,0.8,3.6,1.2,4.9-0.1c1-1.5,0.6-3.2,0.7-4.9c0.2-9.7-2.3-19.1-3.4-28.7
		c-1.8-15.4-3.1-30.8-2.7-46.3c0-0.9-0.2-2,1.3-3c3.8,1.2,5.7,6.3,10.5,6.5c3.3-2.2,2.5-5.2,1.3-8c-1.8-4.5-4.7-8.4-7.4-12.5
		c-1.2-1.8-2.7-3.4-2.8-6.1c5.1-9.6,13.1-17.5,19.8-26.4c-2.4-2.9-4.7-2.1-6.9-0.8c-4.7,2.8-9.4,5.7-14.1,8.6
		c-1.5,0.9-2.8,2.4-5.3,1.9c-0.8-2.5-1.6-5.2-2.4-7.9c-1.2-3.8-2.2-7.8-6.8-9c0.1-8-2-15.4-3.5-22.9c-1.6-8-3.2-16-6-23.7
		c-2.1-5.8-6.1-7.8-12.2-6.5c-7.1,1.5-11.7,6.3-15,12.2c-11,19.5-16.4,40.4-14.7,62.8c0.5,7.3,3.3,13.9,9.4,18.7
		c0.8,0.6,2.1,1.2,1.8,2.7c-6.7,5.5-16.2,3.2-22.7,8.1c-3.2,0-5.4-2.1-7.5-2c-3.9,0.4-4.1,4.4-6.7,5.6c-2.6-2.4-3.5-6.5-7.6-6.5
		c-4.7,1.4-2.9,6.9-6.1,9.2c-3-2.6-4-6.9-7.9-8.3c-2.1,0.5-2.7,1.9-2.8,3.7c-0.1,2.5-0.1,5,0.5,7.4c0.3,1.2,0.7,2.6-1.4,3.9
		c-4.6-5.1-5.1-12-8.6-18.1c5.5-4.9,10.6-9.5,15.7-14c10.5-9.2,21.1-18.4,31.6-27.6c0.8-0.7,1.3-1.5,0.7-2.8
		c-3.2-1.5-5.2,1.1-7.2,2.8c-12.5,10-24.5,20.5-36.4,31.2c-4.1,3.7-7.6,8.3-12.6,10.5c-3.7,1.6-6.5,3.4-7.8,7.2
		c-1.3-0.3-1.6-1.2-1.9-1.9c-4-9-6.8-18.4-9.2-28c-0.7-2.6-0.4-5.3,0.1-7.9c1.1-5.4,1.7-10.8,1.4-16.4c-0.3-6.2-0.4-12.3-0.8-18.5
		c-0.3-4.7-1.4-9.2-3.2-13.6c-2.9-6.9-8.3-8.5-14.4-4.4c-3.8,2.6-6.2,6.4-8.4,10.4c-1.8,3.3-3.5,6.6-5.2,10
		c-0.7-1.8-0.6-3.3-0.8-4.7c-0.7-9.4-6.4-14.3-15.7-13.2c-6.3,0.7-12.4,2.4-18.2,5.1c-12.2,5.6-22.8,13.7-33,22.3
		C54.3,56.3,43.5,67.7,33.7,79.9c-10.6,13.3-20.3,27.3-27.4,42.8c-3.6,7.9-6.5,16.1-6.3,25c0.2,7.1,3.8,11.5,10.7,12
		c8.9,0.6,18,0.7,26.9,0.6c9.6-0.2,18.9,0.2,27.9,4.3c3.6,1.7,7.3,3.3,10.7,5.3C77.3,170.4,78.3,171,79.6,170.6z M72.9,143.4
		c-5.9-4.5-6.8-13.9-1.9-18.8c1.8-1.8,3.8-3.4,6.8-0.9c-0.2,4.3,1,8.5,2.4,12.4C76.6,142.1,76.6,142.1,72.9,143.4z M88.7,137.1
		c-2.5-1.9-2.5-1.9-0.9-4.7C89.3,134.2,88.9,135.6,88.7,137.1z M320.3,72.8c-0.6,3.8-2.5,5.9-4.7,7.7c-1.8-0.4-1.7-1.7-2.3-2.8
		C315.3,75.2,317.5,74.2,320.3,72.8z M314.7,93.2c2.9,3.4,5.1,7.4,6.9,11.9c-4.4-1.8-6.4-5.8-9.1-8.7
		C312.3,94.6,312.8,93.7,314.7,93.2z M309.8,129.1c-3.8-11.7-4.5-21.5-1.9-24.8C311.1,107.2,311.7,114.2,309.8,129.1z M305.7,72.6
		c0.7,1.8,1.4,2.9-0.5,4C304.8,75.2,305,74.1,305.7,72.6z M304.3,85c0.7-1.4,1.9-2.3,3.6-2.8c2,0.7,2.2,2.8,3.1,4.7
		c-2.5,4.9-2.5,4.9-5.7,5.6C303.9,89.3,303.9,89.3,304.3,85z M295.9,92.4c0.6-1.5,1.5-1.5,2.5-1.9C297.8,92,297.8,92,295.9,92.4z
		 M256.1,77.9c-1.7-16.8,0.2-33.3,6.3-49c3.3-8.5,8.4-15.8,16.1-21.1c4.7-3.2,8-2.5,10.3,2.7c0.8,1.8,1.3,3.8,1.8,5.7
		c2.6,12.4,5.3,24.7,7.7,37.1c1,5.2,1.9,10.5,1.5,16.8c1.9,10.1-4.1,16.3-13.2,20.4c-2.3,1-4.6,2-6.9,2.9
		C268.7,97.8,257.2,88.4,256.1,77.9z M184.6,107c5.6,2.3,6.6,7.9,3.3,12.7c-3.7-1.2-4.2-4.7-5.3-7.6
		C181.8,110.3,181.8,108.1,184.6,107z M150.6,152.5c0.6-4.6,2.7-8,5.6-11.5c2.7,2.2,4.1,4.8,5,8.3
		C157.7,151.3,154.4,151.9,150.6,152.5z M167.2,148.3c-2.7-3.9-5.8-7.9-7.3-12.7c1.3-3.4,3.3-6,5.6-8.4c2.4,3.1,5.9,15.8,5.9,21.1
		C170.2,149.2,169,148.9,167.2,148.3z M172.2,156c3,0.7,2.3,3,3.1,5.5C172.7,159,172.7,159,172.2,156z M173.3,118.9
		c6.8,12.7,12.8,25.2,19.3,38.7c-5.6-1.4-9.8-2.8-14.1-5.2c-2.1-7.6-4.2-15.3-6.3-22.9c-0.5-1.9-1-3.9-1.6-5.8
		C170,121.8,170.7,120.5,173.3,118.9z M162.8,90c2.9,7.6,5.8,15.2,7.5,23.3C167.2,111.1,162.4,95.6,162.8,90z M164.8,117.3
		c0.4,1.5-0.3,3-1.2,4.2c-2,2.6-4.1,5.2-6.3,8c-2-1.3-2.2-2.8-1.9-4.3c1.5-7.8,2.8-15.6,5.2-24.1
		C162.8,106.9,163.4,112.2,164.8,117.3z M160.5,36.6c0.7,5.4,2.4,10.7,0.5,16.2C159.8,47.4,160.3,42,160.5,36.6z M135.1,52.9
		c0.3-12.3,6.2-22.2,13.4-31.5c1.5-1.9,3.6-3.6,6.7-3.1c3.8,3.3,3.7,8.1,4.8,12c-1,2.1-3.2,1.2-4.5,3.6c0.1-0.3-0.3,0.5-0.4,1.3
		c-0.2,8.8-0.8,17.6,1.7,26.3c3.1,11.2,2.9,22.3-0.4,33.4c-1.8,6.3-2.7,13-4.9,19.6c-2.1-1.2-2.9-3-3.8-4.7
		c-5.6-9.8-8.4-20.6-10.3-31.6C135.9,69.8,134.9,61.4,135.1,52.9z M129.9,52.1c-1.2,14.7,2.6,28.7,6.1,42.7
		c-0.3,0.2-0.6,0.4-0.9,0.6c-4.2-4.3-8.3-8.6-12.3-12.7c-4.7,0.4-6.4,1.5-6.6,5.4c-0.4,8.3-0.8,16.7,1.5,24.8c0.6,2,0.9,4.4,3.9,4.7
		c2-1.4,1.1-2.9,0.9-4.3c-1.1-6.6-2.6-13.1-2.2-19.8c0.1-1.6-0.4-3.4,1.3-4.9c2.9,1.3,4.6,4,6.7,6.3c3.9,4.1,7.5,8.5,11.2,12.7
		c3.3,3.8,5,8.5,7,14.1c-5.6-0.5-9.5,3-14.4,3.2c-2.4,0.1-4.6,1.1-6.6,2.2c-4.5,2.6-8.6,1.9-12.6-0.8c-0.7-0.5-1.5-0.7-2.4-1.2
		c-1.2,0.4-2.4,0.9-3.6,1.3c-2.5-1.5-2.3-5.5-5.9-6.2c-4.2,2.7-0.6,7.5-2.5,10.8c-3.7-2.2-6.2-8.8-4.5-12.7c1.4-3.4,3.2-6.6,5-9.8
		c7.5-13.2,15.7-26,22.6-39.4C124.4,63.6,126.9,57.8,129.9,52.1z"/>
</g>
</svg>
